<?xml version="1.0" encoding="utf-8" ?>
<svg baseProfile="full" height="200mm" version="1.1" viewBox="0,0,200,200" width="200mm" xmlns="http://www.w3.org/2000/svg" xmlns:ev="http://www.w3.org/2001/xml-events" xmlns:xlink="http://www.w3.org/1999/xlink"><defs /><rect fill="#1a1a1a" height="200" width="200" x="0" y="0" /><text alignment-baseline="middle" fill="#e1ed5e" style="dominant-baseline: central; font-size:9.0px; font-family:Arial;" text-anchor="middle" x="100.0" y="100.0">2024</text><line stroke="#e1ed5e" stroke-width="0.3" x1="100.0" x2="100.0" y1="15.0" y2="10.0" /><path d="M 100.0 14.0 a86.0,86.0 0 0,1 42.35913384403234,11.155469271406648" fill="none" id="id37" stroke="none" /><text fill="#e1ed5e" style="font-size:6.75px; font-family:Arial;" text-anchor="middle"><textPath startOffset="22.145653131862478" xlink:href="#id37">January</textPath></text><line stroke="#e1ed5e" stroke-width="0.3" x1="143.13028292997686" x2="145.6673583964461" y1="26.7553504044142" y2="22.446841604673864" /><path d="M 143.63769802327073 25.89364864446614 a86.0,86.0 0 0,1 29.32050498858742,28.57503671076993" fill="none" id="id38" stroke="none" /><text fill="#e1ed5e" style="font-size:6.75px; font-family:Arial;" text-anchor="middle"><textPath startOffset="20.669276256404974" xlink:href="#id38">February</textPath></text><path d="M 117.42321728460499 88.27688183743584 l 7.724312153695102 -5.197261942104689 a30.310023090335044,30.310023090335044 0 0,0 0.2867552782761007,0.43418403969431085 l -7.812391870891927 5.063898024071319" fill="#ff5d08" stroke="none" /><path d="M 117.62189284568427 88.57770195909679 l 7.797444692567518 -5.054209443668122 a30.292210546157108,30.292210546157108 0 0,0 0.27909556296309707,0.4387845815188338 l -7.883057947156504 4.9196111874706165" fill="#ff5c08" stroke="none" /><path d="M 117.81537515405839 88.88188828441811 l 2.543734353555293 -1.5874783703978663 a23.998444936619386,23.998444936619386 0 0,0 0.21510838763451476,0.35136338517805116 l -2.5706107056452105 1.5435778690952604" fill="#ff0000" stroke="none" /><line stroke="#e1ed5e" stroke-width="0.3" x1="172.87174338648825" x2="177.1583165268699" y1="56.24261187166439" y2="53.66864786411523" /><path d="M 173.72905801456457 55.72781907015455 a86.0,86.0 0 0,1 12.242430191666344,42.057860355516425" fill="none" id="id39" stroke="none" /><text fill="#e1ed5e" style="font-size:6.75px; font-family:Arial;" text-anchor="middle"><textPath startOffset="22.145653131862474" xlink:href="#id39">March</textPath></text><path d="M 119.71291397450082 92.76114493625339 l 10.085439282840369 -3.7035130025492173 a31.74393289665897,31.74393289665897 0 0,0 0.18344944278452424,0.5131407412097898 l -10.147528895668836 3.5298373049585106" fill="#ff710a" stroke="none" /><path d="M 120.05942366710727 93.78553927170692 l 8.649155391076363 -2.6795304492663705 a30.05470995711795,30.05470995711795 0 0,0 0.14844691037980465,0.4941314849133471 l -8.693878621459794 2.5306613607623" fill="#ff5908" stroke="none" /><path d="M 120.35273937422433 94.82641323984039 l 8.85331215133428 -2.250477328261315 a30.134866405918665,30.134866405918665 0 0,0 0.12314035354252392,0.502454664202172 l -8.890640031393094 2.0981668394510478" fill="#ff5a08" stroke="none" /><path d="M 120.51834098615036 95.52812308129327 l 8.948553123171463 -1.9502955036346448 a30.15861646482258,30.15861646482258 0 0,0 0.10590311507075995,0.5067847429728106 l -8.980713949066589 1.7963943093764296" fill="#ff5a08" stroke="none" /><path d="M 120.592083275326 95.88100663000786 l 8.782759800432384 -1.756797935620321 a29.956740964139296,29.956740964139296 0 0,0 0.09653732058029998,0.5051240540649122 l -8.811623413294841 1.6057713165220941" fill="#ff5808" stroke="none" /><path d="M 120.65975698304385 96.23510406497455 l 6.112935964211505 -1.1139805652902697 a27.213609160737008,27.213609160737008 0 0,0 0.07980738508852346,0.46030778920332227 l -6.131158166792262 1.0088797431663548" fill="#ff3004" stroke="none" /><path d="M 120.82617615685814 97.30363454192243 l 35.75417038530962 -4.629093179806892 a57.052589416144386,57.052589416144386 0 0,0 0.11741399466903592,0.9723563095204972 l -35.82836646623832 4.014643193362982" fill="#57ff2a" stroke="none" /><path d="M 120.86939407059847 97.66154086499901 l 9.281623921507391 -1.040025320019758 a30.33971066396494,30.33971066396494 0 0,0 0.05355335652912681,0.5180801447305785 l -9.298109670518183 0.8805406530062481" fill="#ff5d08" stroke="none" /><path d="M 120.9064616781168 98.02013634271609 l 6.144554992055724 -0.5818957462174158 a27.172046557655154,27.172046557655154 0 0,0 0.03998997728502112,0.4647441534875394 l -6.153638592038486 0.47633054535421443" fill="#ff2f04" stroke="none" /><path d="M 120.96210409425399 98.7389718711861 l 9.228027729537763 -0.5551352329946544 a30.24471042834928,30.24471042834928 0 0,0 0.026728273947446844,0.5185213740646992 l -9.236197592941783 0.39664206555322457" fill="#ff5c08" stroke="none" /><path d="M 120.98066250479742 99.09900007780936 l 12.012395713363588 -0.5158639580894538 a33.02346732010744,33.02346732010744 0 0,0 0.01946074973979459,0.5665784951336296 l -12.019481150100232 0.30957919839170434" fill="#ff830c" stroke="none" /><line stroke="#e1ed5e" stroke-width="0.3" x1="184.99686870605535" x2="189.99668451229388" y1="99.2704041080226" y2="99.22748670261217" /><path d="M 185.99683186730306 99.26182062694052 a86.0,86.0 0 0,1 -10.086455211305974,41.156179273409016" fill="none" id="id40" stroke="none" /><text fill="#e1ed5e" style="font-size:6.75px; font-family:Arial;" text-anchor="middle"><textPath startOffset="21.40746469413373" xlink:href="#id40">April</textPath></text><path d="M 120.96210409425399 101.26102812881392 l 50.561531509753785 3.041656180268082 a71.6529381273267,71.6529381273267 0 0,0 -0.08440046953117478,1.227164303626429 l -50.50186707905754 -3.9091639080488547" fill="#3dffae" stroke="none" /><path d="M 120.9064616781168 101.97986365728391 l 6.238040007292001 0.5907488743562943 a27.265949837425193,27.265949837425193 0 0,0 -0.04812778700896467,0.46559268130291026 l -6.22697982780137 -0.697746077942136" fill="#ff3104" stroke="none" /><path d="M 120.86939407059847 102.33845913500097 l 12.190613491312314 1.3659836688879958 a33.26690542387258,33.26690542387258 0 0,0 -0.06846315471508821,0.5669731333521405 l -12.165368250337561 -1.575050479163545" fill="#ff860c" stroke="none" /><path d="M 120.82617615685814 102.69636545807757 l 8.950319332290945 1.1587980292006719 a30.025022383488054,30.025022383488054 0 0,0 -0.07056664262750893,0.5105850733189397 l -8.929108173108226 -1.3122714107196967" fill="#ff5908" stroke="none" /><path d="M 120.592083275326 104.11899336999214 l 12.380867560901207 2.4765202585990127 a33.62612506479431,33.62612506479431 0 0,0 -0.11807940182781655,0.5650526829707271 l -12.336530448249025 -2.688689392855149" fill="#ff8b0c" stroke="none" /><path d="M 120.51834098615036 104.47187691870673 l 15.132772007645231 3.2981172260816627 a36.48800716271618,36.48800716271618 0 0,0 -0.13863555499956695,0.6108538353046779 l -15.073925591087999 -3.5574053953253575" fill="#ffb210" stroke="none" /><path d="M 120.43855184770803 104.8234425847677 l 9.92215075326743 2.3416005611553143 a31.194712784505914,31.194712784505914 0 0,0 -0.1274712125548657,0.5201260468818093 l -9.880492014196268 -2.5115824326452234" fill="#ff6909" stroke="none" /><path d="M 120.16314734710363 105.8691983318838 l 9.035932862304112 2.6302283651201592 a30.410960840676687,30.410960840676687 0 0,0 -0.15020651288669037,0.49998862937908095 l -8.989450029413792 -2.7849545980899637" fill="#ff5e08" stroke="none" /><path d="M 119.94978838288452 106.5578916946017 l 44.086766693546615 14.49219588662367 a67.40761509825174,67.40761509825174 0 0,0 -0.37078867813746835,1.0961708420830127 l -43.83149259383678 -15.246868403180843" fill="#38ff7e" stroke="none" /><path d="M 119.58574465831526 107.57618678355244 l 4.441195197955471 1.7179497103083916 a25.761886810235143,25.761886810235143 0 0,0 -0.16308663656787534,0.4110848602270998 l -4.4110498864214716 -1.7939355877490555" fill="#ff1a02" stroke="none" /><path d="M 119.4528033332814 107.91128576633889 l 8.310593988008534 3.3798462257965376 a29.971584750954243,29.971584750954243 0 0,0 -0.19791829539246325,0.47493185931633847 l -8.251349848079586 -3.5220105945541538" fill="#ff5808" stroke="none" /><path d="M 119.31412917781788 108.2440532568976 l 8.36602777449234 3.570959782168738 a30.0962725601998,30.0962725601998 0 0,0 -0.20689914453692207,0.4734257326189734 l -8.303494747938451 -3.714047584563556" fill="#ff5a08" stroke="none" /><path d="M 119.16976305983485 108.57439118712176 l 10.818391329559498 4.838928837329543 a32.85127939305405,32.85127939305405 0 0,0 -0.234676298016432,0.5128100634946031 l -10.73373056668801 -5.0239278830388345" fill="#ff800b" stroke="none" /><path d="M 118.8641267826498 109.22738970284198 l 8.117770405690502 3.970808292085806 a30.036897412940014,30.036897412940014 0 0,0 -0.23054046342228401,0.46123535977860725 l -8.048410029056486 -4.1095755080281595" fill="#ff5908" stroke="none" /><path d="M 118.70294669586154 109.54985784667822 l 13.312662449507025 6.797540303193748 a35.947693322652086,35.947693322652086 0 0,0 -0.2853424007547238,0.5471816772529959 l -13.194011979777352 -7.025068223551247" fill="#ffab0f" stroke="none" /><line stroke="#e1ed5e" stroke-width="0.3" x1="174.33088141563837" x2="178.70328620479359" y1="141.23008692659167" y2="143.65538615756765" /><path d="M 175.20536237346943 141.71514677278685 a86.0,86.0 0 0,1 -30.301960400862466,31.631185727798858" fill="none" id="id41" stroke="none" /><text fill="#e1ed5e" style="font-size:6.75px; font-family:Arial;" text-anchor="middle"><textPath startOffset="22.145653131862474" xlink:href="#id41">May</textPath></text><path d="M 118.36410011445183 110.18625677009912 l 55.092300343355504 30.558770310297355 a84.0,84.0 0 0,0 -0.7102665399144867,1.254972919603509 l -54.559600438419636 -31.499999999999986" fill="#4dd2ff" stroke="none" /><path d="M 118.00360718960297 110.81064883170644 l 8.144509166400669 4.890543743668153 a30.500023561566373,30.500023561566373 0 0,0 -0.27338483424532173,0.4465535810718169 l -8.059356367699943 -5.029634440864527" fill="#ff5f08" stroke="none" /><path d="M 117.62189284568427 111.42229804090321 l 2.932138147971874 1.9005765224272766 a24.49422741623863,24.49422741623863 0 0,0 -0.2317335416725966,0.3508741176830291 l -2.8990801673785507 -1.9506305184493669" fill="#ff0701" stroke="none" /><path d="M 117.423217284605 111.72311816256416 l 5.241497532864535 3.5267134607138946 a27.317515668441636,27.317515668441636 0 0,0 -0.2651233360922238,0.3868228706654462 l -5.18018445995699 -3.6161710664493847" fill="#ff3104" stroke="none" /><path d="M 117.21940702142032 112.02048342749411 l 2.4610744779212954 1.7180211222651915 a24.001413693982375,24.001413693982375 0 0,0 -0.2387396635528199,0.335817234974209 l -2.4312197158385174 -1.7600155839489047" fill="#ff0000" stroke="none" /><path d="M 117.01052211995028 112.31430620078461 l 5.2015116175654965 3.7654932819797065 a27.421422176146272,27.421422176146272 0 0,0 -0.27930413445794544,0.37892970030438455 l -5.13610546352372 -3.8542292915529703" fill="#ff3304" stroke="none" /><path d="M 116.79662413953412 112.60449989151573 l 7.645982243433367 5.7376876184930925 a30.559398708826162,30.559398708826162 0 0,0 -0.3184697133651442,0.41688707781011924 l -7.546360552713918 -5.8680956095440875" fill="#ff6008" stroke="none" /><path d="M 116.35404254752997 113.17365903436017 l 4.26325636741604 3.434177549506641 a26.47438857735262,26.47438857735262 0 0,0 -0.2881336056222137,0.3514761489901616 l -4.203675942555199 -3.506855980195296" fill="#ff2503" stroke="none" /><path d="M 115.89218393027572 113.72728997021213 l 4.587697033922486 3.962743431389636 a27.062202535224543,27.062202535224543 0 0,0 -0.30669070420454086,0.3489577229487096 l -4.518995265759359 -4.0409134321496385" fill="#ff2e04" stroke="none" /><path d="M 115.6541949942343 113.99807769240083 l 7.090529300437307 6.340395022824407 a30.51189859101833,30.51189859101833 0 0,0 -0.3524884166600216,0.3874465167914003 l -6.980643182935406 -6.461179115173479" fill="#ff5f08" stroke="none" /><path d="M 115.41159269507618 114.26474011684316 l 2.472855809185919 2.288838419388857 a24.369539606993072,24.369539606993072 0 0,0 -0.28679950230483303,0.3045711327179121 l -2.4332004731448262 -2.3309510120512664" fill="#ff0600" stroke="none" /><path d="M 115.16444852881244 114.52719865689866 l 4.559839124563036 4.368222733597395 a27.314546911078647,27.314546911078647 0 0,0 -0.3272714534958464,0.33580934232818027 l -4.484180869916379 -4.445854767993313" fill="#ff3104" stroke="none" /><path d="M 114.91283532996326 114.78537596483092 l 2.2726596040290823 2.253235279688196 a24.200320437302672,24.200320437302672 0 0,0 -0.29502274130445155,0.29250119456472723 l -2.233644942594668 -2.2919164844815847" fill="#ff0300" stroke="none" /><path d="M 114.65682725009322 115.03919595460226 l 10.430583154936512 10.702697201187659 a35.9447245652891,35.9447245652891 0 0,0 -0.4455905139208458,0.42686563267095856 l -10.245320155150354 -10.880174964164198" fill="#ffab0f" stroke="none" /><path d="M 114.13192950727249 115.5334660781643 l 4.255361648907742 4.6773878817902 a27.323453183167615,27.323453183167615 0 0,0 -0.34965559325101137,0.31266418756843706 l -4.174441028833353 -4.749747599242024" fill="#ff3104" stroke="none" /><path d="M 113.03279911837588 116.46651593811092 l 1.976937013432541 2.4977953350350632 a24.185476650487725,24.185476650487725 0 0,0 -0.32775933995169704,0.2548676451810855 l -1.9337677288456134 -2.531364031836942" fill="#ff0300" stroke="none" /><path d="M 112.7482090630111 116.68781488649013 l 5.657126655029244 7.405360387638544 a30.318929362424015,30.318929362424015 0 0,0 -0.4163034600514557,0.3124018775121395 l -5.529170206067022 -7.501381292414699" fill="#ff5d08" stroke="none" /><path d="M 112.45986205192187 116.90419585922612 l 5.548546081271463 7.527668388374102 a30.3515856934169,30.3515856934169 0 0,0 -0.42205901846378735,0.30553818110439446 l -5.418506052433708 -7.621807340851573" fill="#ff5d08" stroke="none" /><path d="M 112.16784306229584 117.11559508785304 l 2.2310483650814334 3.138248927328408 a24.85047829979737,24.85047829979737 0 0,0 -0.34980587486190934,0.2441916679469288 l -2.1768473990457657 -3.176085411080459" fill="#ff0d01" stroke="none" /><path d="M 111.8722381534696 117.32195027204791 l 3.6185682284831704 5.27959918757862 a27.400640874605344,27.400640874605344 0 0,0 -0.3902682568626396,0.26258990033609975 l -3.5274036835235276 -5.340938761971842" fill="#ff3304" stroke="none" /><path d="M 110.96478420261333 117.91015095944535 l 1.6337895315330733 2.6686724157092607 a24.129070260590925,24.129070260590925 0 0,0 -0.35511929677489396,0.21323893430717591 l -1.5877374782007427 -2.69632535055236" fill="#ff0200" stroke="none" /><line stroke="#e1ed5e" stroke-width="0.3" x1="143.1302829299769" x2="145.66735839644613" y1="173.24464959558577" y2="177.55315839532614" /><path d="M 143.63769802327073 174.10635135553383 a86.0,86.0 0 0,1 -40.68552437913181,11.842963189579606" fill="none" id="id42" stroke="none" /><text fill="#e1ed5e" style="font-size:6.75px; font-family:Arial;" text-anchor="middle"><textPath startOffset="21.407464694133747" xlink:href="#id42">June</textPath></text><path d="M 110.34350942703117 118.27599006163325 l 4.566624561606661 8.068788034844824 a30.271429244616183,30.271429244616183 0 0,0 -0.45444019058032475,0.25207031322275736 l -4.427440182870241 -8.145991263500724" fill="#ff5c08" stroke="none" /><path d="M 109.3889696526874 118.78422872680471 l 6.687002842972396 13.378485131564315 a35.95659959474106,35.95659959474106 0 0,0 -0.5544845833402152,0.27122619528850594 l -6.456358010370112 -13.491305076950043" fill="#ffab0f" stroke="none" /><path d="M 109.06512990194946 118.94263497670748 l 2.611762132817446 5.4575783538753875 a27.050327505772586,27.050327505772586 0 0,0 -0.4205827249574656,0.19685395174682932 l -2.5176906939884742 -5.50160853719275" fill="#ff2d04" stroke="none" /><path d="M 108.07796709384702 119.3841803445677 l 2.4758068883832554 5.9410352462687115 a27.43626596296122,27.43626596296122 0 0,0 -0.43629612475825963,0.17743783569761787 l -2.3734563024345547 -5.98266033854562" fill="#ff3304" stroke="none" /><path d="M 107.74402155503746 119.51999308798841 l 3.456181525270243 8.711835188555588 a30.372366994957822,30.372366994957822 0 0,0 -0.48628724940147,0.18810635470841422 l -3.3061220133752434 -8.769881431402043" fill="#ff5d08" stroke="none" /><path d="M 107.407793817531 119.65005319985036 l 1.2901939564391203 3.422392753717873 a24.657509071203055,24.657509071203055 0 0,0 -0.3973508839467564,0.14591274846848296 l -1.2312539208382367 -3.4440363511950776" fill="#ff0a01" stroke="none" /><path d="M 106.72888874123015 119.89276391827305 l 2.1793342593880953 6.44281449556056 a27.801423118608923,27.801423118608923 0 0,0 -0.4533978704361036,0.1490408856383616 l -2.0684136513042573 -6.479276302600941" fill="#ff3805" stroke="none" /><path d="M 106.0420521117495 120.11202640906438 l 5.261633430334614 17.514266436054378 a39.28754535601527,39.28754535601527 0 0,0 -0.6475709744327709,0.18849847285687396 l -4.960202443520236 -17.602008603213772" fill="#ffd714" stroke="none" /><path d="M 104.29559338865022 120.5559693870025 l 0.8106993789898739 3.8794900049453394 a24.96329107959097,24.96329107959097 0 0,0 -0.4202195775880513,0.08405568445326121 l -0.743983315870864 -3.8928350860614622" fill="#ff0f01" stroke="none" /><path d="M 103.2317021107853 120.74984581791261 l 0.4682853772520057 3.00672804722121 a24.04297629706423,24.04297629706423 0 0,0 -0.40835838245868117,0.06001461962821511 l -0.416601889185639 -3.0143237401483076" fill="#ff0100" stroke="none" /><path d="M 102.875027216393 120.80226474461374 l 0.48000666451535595 3.4730891093806364 a24.50610244569059,24.50610244569059 0 0,0 -0.417213101111957,0.054016588836220056 l -0.4203157415126236 -3.480817294417251" fill="#ff0801" stroke="none" /><path d="M 102.51750503828377 120.84855314841334 l 0.4459404099198284 3.693026308132782 a24.719852975825834,24.719852975825834 0 0,0 -0.42172551614024006,0.04725522371876292 l -0.38247899217878906 -3.700137292358516" fill="#ff0b01" stroke="none" /><path d="M 102.15924093988457 120.88869738790638 l 0.44841312012022433 4.337990169572753 a25.361104566231564,25.361104566231564 0 0,0 -0.4334338810408948,0.041046639174080024 l -0.37387967569431424 -4.345048564252017" fill="#ff1402" stroke="none" /><path d="M 101.44090949804482 120.95050786540614 l 1.0305208732777047 14.983547329214874 a36.018943499363836,36.018943499363836 0 0,0 -0.6172200118317955,0.03713042321930493 l -0.7731565093134442 -14.99902973025887" fill="#ffac0f" stroke="none" /><path d="M 100.72087961077811 120.9876233191556 l 0.1308528467422499 3.8096378599211844 a24.81188445407851,24.81188445407851 0 0,0 -0.4258034671459517,0.010967186884798981 l -0.06543606552555437 -3.8113227641560283" fill="#ff0c01" stroke="none" /><line stroke="#e1ed5e" stroke-width="0.3" x1="101.45913802915013" x2="101.54496967792366" y1="184.9874750549273" y2="189.98673829345242" /><path d="M 101.47630435890484 185.9873277026323 a86.0,86.0 0 0,1 -42.54439059252881,-10.42667462771756" fill="none" id="id43" stroke="none" /><text fill="#e1ed5e" style="font-size:6.75px; font-family:Arial;" text-anchor="middle"><textPath startOffset="22.145653131862474" xlink:href="#id43">July</textPath></text><path d="M 100.36049292484886 120.99690560180557 l 0.0657928042005379 3.8321010035244787 a24.832665755619434,24.832665755619434 0 0,0 -0.42628572904938966,0.0036591502893902105 l -4.693661849821012e-16 -3.832665755619434" fill="#ff0d01" stroke="none" /><path d="M 100.0 121.0 l 3.748385257293153e-16 3.0607888412421644 a24.060788841242164,24.060788841242164 0 0,0 -0.41303543540714344,-0.0035454124546199714 l 0.05254251055829091 -3.0603378269819794" fill="#ff0100" stroke="none" /><path d="M 99.63950707515114 120.99690560180557 l -0.051472294533340276 2.9980031088766244 a23.998444936619386,23.998444936619386 0 0,0 -0.4118438113411427,-0.010607635669572579 l 0.10292941994522689 -2.9966777558570046" fill="#ff0000" stroke="none" /><path d="M 99.27912038922189 120.98762331915562 l -0.1144452857410791 3.3319496235915036 a24.3339145186372,24.3339145186372 0 0,0 -0.4173547215883029,-0.017923007511845578 l 0.17162576793022075 -3.3294940476538293" fill="#ff0500" stroke="none" /><path d="M 98.55909050195518 120.95050786540614 l -0.21653364069859724 3.148351613155843 a24.15578907685783,24.15578907685783 0 0,0 -0.4134447404710658,-0.032003237719746495 l 0.2705473759448991 -3.144170608441043" fill="#ff0200" stroke="none" /><path d="M 98.19965949673042 120.92268563240118 l -0.3313759957481266 3.8510913755317375 a24.865322086612316,24.865322086612316 0 0,0 -0.4249607120693992,-0.04024422126295882 l 0.39743627120254105 -3.844835398763595" fill="#ff0d01" stroke="none" /><path d="M 97.84075906011543 120.88869738790638 l -0.36294295427021617 3.5111438472579994 a24.529852504594505,24.529852504594505 0 0,0 -0.4184840710201869,-0.04689201303205345 l 0.4231629268912024 -3.504396073718975" fill="#ff0801" stroke="none" /><path d="M 97.48249496171623 120.84855314841334 l -0.5103579791101636 4.226496189834325 a25.25719805852693,25.25719805852693 0 0,0 -0.43000040299143605,-0.05567216107522109 l 0.5828362039923936 -4.217112432558706" fill="#ff1302" stroke="none" /><path d="M 97.12497278360702 120.80226474461374 l -0.8421454774562337 6.0933451605729685 a27.151265256114225,27.151265256114225 0 0,0 -0.46115117465915595,-0.06777334206204058 l 0.9466217577230746 -6.077990745212046" fill="#ff2f04" stroke="none" /><path d="M 96.76829788921471 120.74984581791261 l -0.6496602989779016 4.1712851542912786 a25.221572970171056,25.221572970171056 0 0,0 -0.42723242447040993,-0.07030093286560013 l 0.7211702265013751 -4.159518222930011" fill="#ff1202" stroke="none" /><path d="M 96.41257539226777 120.69131181640829 l -0.6496617863208589 3.7470765425972874 a24.802978181989538,24.802978181989538 0 0,0 -0.4188930888401255,-0.07633627484964156 l 0.7138896087120415 -3.7353720938162795" fill="#ff0c01" stroke="none" /><path d="M 96.05791012581884 120.62667999033965 l -0.5985303979365597 3.131763956876414 a24.188445407850715,24.188445407850715 0 0,0 -0.40717621243894214,-0.08144664612269341 l 0.65220309590646 -3.1210279140908592" fill="#ff0300" stroke="none" /><path d="M 95.70440661134978 120.55596938700252 l -0.655846688621021 3.138463824225444 a24.20625795202865,24.20625795202865 0 0,0 -0.40601684779601827,-0.08848948223887212 l 0.7096259530361757 -3.126742883852853" fill="#ff0300" stroke="none" /><path d="M 95.35216902796893 120.47920084513623 l -0.7004270980894103 3.0862110316547597 a24.164695348946797,24.164695348946797 0 0,0 -0.40374355298174813,-0.0952823791669936 l 0.7533028048110463 -3.073732508841539" fill="#ff0300" stroke="none" /><path d="M 95.00130118170881 120.39639698878247 l -0.9363285331844624 3.820539938288031 a24.933603505961077,24.933603505961077 0 0,0 -0.4148413850380924,-0.10545105785206697 l 1.0017752114479335 -3.803903648600701" fill="#ff0e01" stroke="none" /><path d="M 93.61358852112213 120.00534299687104 l -1.1285539345832918 3.535179126255427 a24.710946703736866,24.710946703736866 0 0,0 -0.4029970179632532,-0.13247312434240233 l 1.1890736901942887 -3.5152850805110027" fill="#ff0b01" stroke="none" /><path d="M 92.93061703081489 119.77432235084164 l -1.1822835944412589 3.3070576326816368 a24.51203996041657,24.51203996041657 0 0,0 -0.39500667798536715,-0.14505192356882413 l 1.2388794240807448 -3.2862748601040934" fill="#ff0801" stroke="none" /><path d="M 92.25597844496254 119.51999308798841 l -1.5786549760657862 3.9792417934422426 a25.280948117430846,25.280948117430846 0 0,0 -0.4020218971758073,-0.1634988057192802 l 1.6467313344320345 -3.9515557311436713" fill="#ff1302" stroke="none" /><path d="M 90.93487009805054 118.94263497670748 l -1.655739291266016 3.4598583087374872 a24.835634512982423,24.835634512982423 0 0,0 -0.38298884238583686,-0.1873390346265511 l 1.7148883829139223 -3.430925524013715" fill="#ff0d01" stroke="none" /><line stroke="#e1ed5e" stroke-width="0.3" x1="58.13341422392154" x2="55.67067388415222" y1="173.97424548756322" y2="178.32567169271397" /><path d="M 57.64086615596768 174.84453072859336 a86.0,86.0 0 0,1 -31.369924170532247,-30.572349798747897" fill="none" id="id44" stroke="none" /><text fill="#e1ed5e" style="font-size:6.75px; font-family:Arial;" text-anchor="middle"><textPath startOffset="22.145653131862474" xlink:href="#id44">August</textPath></text><path d="M 89.34428304082925 118.09573695890944 l -1.8393049913501933 3.123541985791681 a24.62485274021017,24.62485274021017 0 0,0 -0.3624159693617162,-0.21762037654512975 l 1.8926537172693367 -3.0915076087106326" fill="#ff0901" stroke="none" /><path d="M 88.72937992617639 117.7192867562869 l -5.004620562444741 7.868094769543918 a30.324866877149994,30.324866877149994 0 0,0 -0.43684323477292286,-0.2831565069895788 l 5.138949429474674 -7.781024420850445" fill="#ff5d08" stroke="none" /><path d="M 88.4268655584334 117.5232005979908 l -2.262708392538514 3.4260288997249804 a25.105791433014467,25.105791433014467 0 0,0 -0.3575826384703372,-0.24059755756895698 l 2.3211873191058547 -3.3866816680989023" fill="#ff1101" stroke="none" /><path d="M 87.83215693770417 117.11559508785305 l -2.335978164826974 3.2858458313893473 a25.03157249893973,25.03157249893973 0 0,0 -0.3480806909472144,-0.2519835770283357 l 2.3920398661481426 -3.245261482987946" fill="#ff1001" stroke="none" /><path d="M 86.40962598614128 116.0094264158162 l -5.840639508335684 6.880258654740292 a30.025022383488054,30.025022383488054 0 0,0 -0.39006867746642415,-0.3369320332165242 l 5.9578876655649715 -6.778982489059045" fill="#ff5908" stroke="none" /><path d="M 86.13680546590413 115.77377054828092 l -2.1087786605749703 2.399403012574847 a24.194382922576693,24.194382922576693 0 0,0 -0.30961318312970193,-0.2768580175242092 l 2.149656870528043 -2.362849465167258" fill="#ff0300" stroke="none" /><path d="M 85.86807049272751 115.53346607816431 l -2.3034891930472425 2.5319381350723487 a24.422977239526883,24.422977239526883 0 0,0 -0.3076948892121619,-0.28479779583680653 l 2.346613853573372 -2.4920225931031625" fill="#ff0601" stroke="none" /><path d="M 85.60350026404147 115.28858382429668 l -2.177690219708161 2.312631547806059 a24.176570378398758,24.176570378398758 0 0,0 -0.29970602223384873,-0.2871115896755249 l 2.217068727807324 -2.2749078278249515" fill="#ff0300" stroke="none" /><path d="M 85.34317274990678 115.03919595460226 l -2.167340083445289 2.2238818578550443 a24.105320201687007,24.105320201687007 0 0,0 -0.2938646066422055,-0.2913529584298612 l 2.205196610217457 -2.1863488891965237" fill="#ff0200" stroke="none" /><path d="M 85.08716467003676 114.78537596483092 l -2.2410363256798824 2.2218822841452246 a24.15578907685783,24.15578907685783 0 0,0 -0.2894245409692635,-0.296975075944891 l 2.2788476677999556 -2.1830845161325962" fill="#ff0200" stroke="none" /><path d="M 84.83555147118756 114.52719865689866 l -2.242403255426861 2.148171593485132 a24.105320201687007,24.105320201687007 0 0,0 -0.28368996494126636,-0.3012689117954933 l 2.2789490541043804 -2.1093612217451487" fill="#ff0200" stroke="none" /><path d="M 84.58840730492382 114.26474011684316 l -2.760447850430451 2.5550293192649187 a24.761415578907688,24.761415578907688 0 0,0 -0.28605601665965513,-0.3144256719474049 l 2.803901567931984 -2.50726607175984" fill="#ff0b01" stroke="none" /><path d="M 84.3458050057657 113.99807769240083 l -2.4719479489976512 2.2104310987811675 a24.31610197445926,24.31610197445926 0 0,0 -0.27556967797980336,-0.31354770791295095 l 2.5095286909360492 -2.1676711130569166" fill="#ff0500" stroke="none" /><path d="M 84.1078160697243 113.72728997021213 l -2.390455261554124 2.064818320763258 a24.15875783422082,24.15875783422082 0 0,0 -0.26839854960185056,-0.31617281655242585 l 2.4255483746630864 -2.0234787217612777" fill="#ff0200" stroke="none" /><path d="M 83.8745106332314 113.45245675266167 l -2.5782849734435636 2.1508970247293284 a24.357664577541115,24.357664577541115 0 0,0 -0.26509627214836073,-0.32337434797008807 l 2.6148280648305544 -2.106320395060745" fill="#ff0500" stroke="none" /><path d="M 83.64595745247003 113.17365903436017 l -2.790537112511475 2.247859166081626 a24.583290137128316,24.583290137128316 0 0,0 -0.26190986899780055,-0.3309145635583387 l 2.828713412150837 -2.199624658608607" fill="#ff0901" stroke="none" /><path d="M 83.4222238831116 112.89097897827486 l -2.7654364758392624 2.1504201302055983 a24.5031336883276,24.5031336883276 0 0,0 -0.2553553503006597,-0.3342683505604265 l 2.801943803494217 -2.1026308664043016" fill="#ff0801" stroke="none" /><path d="M 83.20337586046588 112.60449989151573 l -2.7117117149071155 2.0349190249438243 a24.390320908534,24.390320908534 0 0,0 -0.2484304944779856,-0.3370436782173283 l 2.7462442289689317 -1.9880690374576164" fill="#ff0601" stroke="none" /><path d="M 82.98947788004972 112.3143062007846 l -2.796744341760829 2.0246272246613026 a24.45266481315678,24.45266481315678 0 0,0 -0.24322821334172154,-0.342130942368793 l 2.8310876536325114 -1.9763190555830055" fill="#ff0701" stroke="none" /><path d="M 82.576782715395 111.72311816256416 l -3.157706690381735 2.124645985260909 a24.805946939352527,24.805946939352527 0 0,0 -0.23468263934659742,-0.35533942743861063 l 3.193713768649059 -2.0701266794832374" fill="#ff0c01" stroke="none" /><path d="M 82.37810715431573 111.42229804090323 l -3.0043828432065256 1.9474046610427336 a24.580321379765326,24.580321379765326 0 0,0 -0.2264693962444993,-0.3560475064632424 l 3.037369931076915 -1.8955434799008193" fill="#ff0901" stroke="none" /><path d="M 82.18462484594161 111.11811171558189 l -2.7250698718285418 1.7006451453173186 a24.21219546675463,24.21219546675463 0 0,0 -0.21702432560527846,-0.3544929258649669 l 2.753862161889225 -1.6536151033277946" fill="#ff0300" stroke="none" /><line stroke="#e1ed5e" stroke-width="0.3" x1="26.387840678322732" x2="22.057713659400534" y1="142.50000000000003" y2="145.00000000000006" /><path d="M 25.521815274538284 143.00000000000003 a86.0,86.0 0 0,1 -11.493303480769212,-40.785679425670985" fill="none" id="id45" stroke="none" /><text fill="#e1ed5e" style="font-size:6.75px; font-family:Arial;" text-anchor="middle"><textPath startOffset="21.40746469413373" xlink:href="#id45">September</textPath></text><path d="M 81.4637452351635 109.86951160357371 l -3.3201217831932315 1.767777842947256 a24.761415578907688,24.761415578907688 0 0,0 -0.19654896084580464,-0.37690854837373966 l 3.349978813013985 -1.7105230514690135" fill="#ff0b01" stroke="none" /><path d="M 81.1358732173502 109.22738970284198 l -8.523125563924717 4.169087812584179 a30.488148532114415,30.488148532114415 0 0,0 -0.22593277609505075,-0.4721126065631321 l 8.59343759797968 -4.022162703955943" fill="#ff5f08" stroke="none" /><path d="M 80.68587082218212 108.24405325689762 l -6.566676500539842 2.8029237193589513 a28.139861457989728,28.139861457989728 0 0,0 -0.1858224534546203,-0.4459062420021547 l 6.613824798530947 -2.6897849679155152" fill="#ff3d05" stroke="none" /><path d="M 80.5471966667186 107.91128576633889 l -6.803576944517907 2.766955513772551 a28.344705716036003,28.344705716036003 0 0,0 -0.17943727312309968,-0.4522991453725955 l 6.850072892607131 -2.6497553511863905" fill="#ff4006" stroke="none" /><path d="M 80.41425534168474 107.57618678355246 l -7.018971213726384 2.715088850144502 a28.52579991517836,28.52579991517836 0 0,0 -0.17274316518378346,-0.458221768772611 l 7.064545062724603 -2.5941988011777464" fill="#ff4306" stroke="none" /><path d="M 80.28708602549918 107.23885506374661 l -9.087763885422062 3.337152777373029 a30.68111776070873,30.68111776070873 0 0,0 -0.1773073921095888,-0.495960332329575 l 9.143711447575594 -3.1806574886625327" fill="#ff6209" stroke="none" /><path d="M 80.16572619554312 106.89939002012753 l -3.603087767597251 1.253340960727186 a24.814853211441495,24.814853211441495 0 0,0 -0.13649891940301198,-0.40353480094651156 l 3.62407210857263 -1.1913044853065127" fill="#ff0c01" stroke="none" /><line stroke="#e1ed5e" stroke-width="0.3" x1="15.003131293944662" x2="10.003315487706104" y1="100.72959589197737" y2="100.7725132973878" /><path d="M 14.003168132696942 100.73817937305945 a86.0,86.0 0 0,1 10.791469493833604,-42.45332614584628" fill="none" id="id46" stroke="none" /><text fill="#e1ed5e" style="font-size:6.75px; font-family:Arial;" text-anchor="middle"><textPath startOffset="22.145653131862435" xlink:href="#id46">October</textPath></text><line stroke="#e1ed5e" stroke-width="0.3" x1="26.387840678322718" x2="22.05771365940052" y1="57.49999999999999" y2="54.99999999999999" /><path d="M 25.521815274538284 56.99999999999999 a86.0,86.0 0 0,1 29.574782752854787,-30.34633250058573" fill="none" id="id47" stroke="none" /><text fill="#e1ed5e" style="font-size:6.75px; font-family:Arial;" text-anchor="middle"><textPath startOffset="21.40746469413373" xlink:href="#id47">November</textPath></text><line stroke="#e1ed5e" stroke-width="0.3" x1="56.869717070023135" x2="54.33264160355391" y1="26.7553504044142" y2="22.446841604673864" /><path d="M 56.362301976729285 25.89364864446614 a86.0,86.0 0 0,1 42.16139366436587,-11.88097634709845" fill="none" id="id48" stroke="none" /><text fill="#e1ed5e" style="font-size:6.75px; font-family:Arial;" text-anchor="middle"><textPath startOffset="22.145653131862474" xlink:href="#id48">December</textPath></text></svg>