<?xml version="1.0" encoding="utf-8" ?>
<svg baseProfile="full" height="200mm" version="1.1" viewBox="0,0,200,200" width="200mm" xmlns="http://www.w3.org/2000/svg" xmlns:ev="http://www.w3.org/2001/xml-events" xmlns:xlink="http://www.w3.org/1999/xlink"><defs /><rect fill="#1a1a1a" height="200" width="200" x="0" y="0" /><text alignment-baseline="middle" fill="#e1ed5e" style="dominant-baseline: central; font-size:9.0px; font-family:Arial;" text-anchor="middle" x="100.0" y="100.0">2025</text><line stroke="#e1ed5e" stroke-width="0.3" x1="100.0" x2="100.0" y1="15.0" y2="10.0" /><path d="M 100.0 14.0 a86.0,86.0 0 0,1 42.46469731375804,11.215312516191453" fill="none" id="id49" stroke="none" /><text fill="#e1ed5e" style="font-size:6.75px; font-family:Arial;" text-anchor="middle"><textPath startOffset="22.20632615414155" xlink:href="#id49">January</textPath></text><path d="M 100.0 79.0 l 0.0 -31.11534848769491 a52.11534848769491,52.11534848769491 0 0,0 0.897080054704133,0.007721451249119418 l -0.5355995754316046 31.11073841305435" fill="#94ff23" stroke="none" /><path d="M 100.36148047927253 79.00311137660856 l 0.15600432669712866 -9.061638622973135 a30.06298140146534,30.06298140146534 0 0,0 0.5173314640534113,0.01336114544001201 l -0.31196242594540785 9.057610685390761" fill="#ff4806" stroke="none" /><path d="M 101.44485096284872 79.0497635885617 l 0.638416206015439 -9.256989674939483 a30.27897801991358,30.27897801991358 0 0,0 0.5196590825932803,0.04033554625277753 l -0.7976654779710606 9.24462886649824" fill="#ff4b07" stroke="none" /><path d="M 102.52436894288641 79.15227682838746 l 0.7223830532127968 -5.965864046807965 a27.009440165320306,27.009440165320306 0 0,0 0.4610707852626636,0.059860220747234474 l -0.8249685669833066 5.9525455028965935" fill="#ff1a02" stroke="none" /><path d="M 106.40334571778207 80.00007090966166 l 1.3704699622361873 -4.280465755432644 a25.494504978395643,25.494504978395643 0 0,0 0.4167953094052109,0.13741086049328402 l -1.4439480938838158 4.256241170680124" fill="#ff0300" stroke="none" /><line stroke="#e1ed5e" stroke-width="0.3" x1="143.23703022742887" x2="145.7803849466894" y1="26.81831364943548" y2="22.513508569990506" /><path d="M 143.74570117128098 25.957352633546492 a86.0,86.0 0 0,1 28.547481713284135,27.462654790039103" fill="none" id="id50" stroke="none" /><text fill="#e1ed5e" style="font-size:6.75px; font-family:Arial;" text-anchor="middle"><textPath startOffset="19.985693538727396" xlink:href="#id50">February</textPath></text><path d="M 110.99172775467656 82.1063720568725 l 3.2972085839338328 -5.367584147696568 a27.29940822844261,27.29940822844261 0 0,0 0.39828646822694563,0.24940694986484255 l -3.389114204533042 5.310032856508782" fill="#ff1f03" stroke="none" /><path d="M 111.90073688211348 82.69761687909136 l 2.4296685716018813 -3.5324750810910133 a25.287384933308285,25.287384933308285 0 0,0 0.3565146304816257,0.24976128200147735 l -2.490114341667158 3.4901289563256004" fill="#ff0000" stroke="none" /><path d="M 112.77801427241765 83.33499621200491 l 10.959013649662722 -14.292674909476727 a39.01056734923915,39.01056734923915 0 0,0 0.529368652347316,0.41318062986350396 l -11.203414857169468 14.101915890389996" fill="#ffc612" stroke="none" /><path d="M 113.06298171725822 83.55741782278167 l 25.896508467286743 -32.59634574959541 a62.631129062558706,62.631129062558706 0 0,0 0.83835226302638,0.6778892265420527 l -26.453764128877616 32.145750425789224" fill="#31ff3f" stroke="none" /><path d="M 113.34407831869373 83.78471172551755 l 16.53031231137825 -20.087095788453365 a47.014277662972006,47.014277662972006 0 0,0 0.6204596528382863,0.5196171157876863 l -16.873629501175653 19.79957751527186" fill="#d1ff1c" stroke="none" /><path d="M 113.6212207817346 84.01681056812373 l 17.844746030701913 -20.93908914206071 a48.5114597031749,48.5114597031749 0 0,0 0.63089430864927,0.5471053275248889 l -18.202534137997947 20.628818821116145" fill="#bfff1e" stroke="none" /><path d="M 114.68862486808459 84.99185889309783 l 5.428554813402107 -5.546640163921345 a28.761083975201956,28.761083975201956 0 0,0 0.35083619346800565,0.3493295913578757 l -5.523226807037432 5.452374721913351" fill="#ff3505" stroke="none" /><path d="M 117.04232023915458 87.72973835380427 l 8.120955342215968 -5.846988289606516 a31.006857035506293,31.006857035506293 0 0,0 0.3081304648978738,0.43582869070867397 l -8.220398426917724 5.706333098566049" fill="#ff5608" stroke="none" /><path d="M 117.45458315368197 88.32363383020206 l 9.957769188792732 -6.661319738142756 a32.98041517941011,32.98041517941011 0 0,0 0.3115916828041682,0.4745755099873455 l -10.070957506954825 6.4889261641777365" fill="#ff720a" stroke="none" /><line stroke="#e1ed5e" stroke-width="0.3" x1="172.23445277983987" x2="176.4835382374775" y1="55.19839476539836" y2="52.563006222186495" /><path d="M 173.08426987136738 54.67131705675599 a86.0,86.0 0 0,1 12.851231095245387,41.99856678651699" fill="none" id="id51" stroke="none" /><text fill="#e1ed5e" style="font-size:6.75px; font-family:Arial;" text-anchor="middle"><textPath startOffset="22.20632615414155" xlink:href="#id51">March</textPath></text><path d="M 118.3937258080291 89.86733742301442 l 13.030760853292835 -7.178333754990168 a35.87713695284614,35.87713695284614 0 0,0 0.2933244684777909,0.5434856918231488 l -13.152393420989089 6.95296707983456" fill="#ff9b0e" stroke="none" /><path d="M 118.73160827565052 90.50648371742162 l 26.93878344019794 -13.653060402443778 a51.20106143152358,51.20106143152358 0 0,0 0.39166370691103347,0.7895701334892925 l -27.169807160062383 13.187330680455537" fill="#9fff22" stroke="none" /><path d="M 119.47837535516314 92.15188598940014 l 58.435126065489385 -23.54434203179955 a84.0,84.0 0 0,0 0.5288258004731983,1.3458039804168624 l -58.83174541584429 22.534989046486903" fill="#4dd2ff" stroke="none" /><path d="M 120.28053869075195 94.5502522615342 l 14.413165107479735 -3.8730782819117247 a35.924478677437534,35.924478677437534 0 0,0 0.15533687807421073,0.5985763571204524 l -14.477698317424249 3.624405499242422" fill="#ff9c0e" stroke="none" /><path d="M 120.45610955862082 95.25157060432595 l 11.903588081500661 -2.7631523676686798 a33.22008266015405,33.22008266015405 0 0,0 0.12450509379097173,0.5581319224693837 l -11.949387562293671 2.557842275649332" fill="#ff760a" stroke="none" /><line stroke="#e1ed5e" stroke-width="0.3" x1="184.98032266829074" x2="189.97916517819016" y1="98.17113171792111" y2="98.06355123074" /><path d="M 185.9800911702706 98.14961562048488 a86.0,86.0 0 0,1 -9.607161424134198,41.387399972396054" fill="none" id="id52" stroke="none" /><text fill="#e1ed5e" style="font-size:6.75px; font-family:Arial;" text-anchor="middle"><textPath startOffset="21.466115282336823" xlink:href="#id52">April</textPath></text><line stroke="#e1ed5e" stroke-width="0.3" x1="174.80103733775053" x2="179.2010983576182" y1="140.37084112569926" y2="142.7455964860345" /><path d="M 175.68104954172406 140.8457921977663 a86.0,86.0 0 0,1 -30.038265399797805,32.042727171017184" fill="none" id="id53" stroke="none" /><text fill="#e1ed5e" style="font-size:6.75px; font-family:Arial;" text-anchor="middle"><textPath startOffset="22.206326154141568" xlink:href="#id53">May</textPath></text><line stroke="#e1ed5e" stroke-width="0.3" x1="143.8653032363475" x2="146.44561519142675" y1="172.8068346515853" y2="177.08958963109032" /><path d="M 144.38136562736335 173.6633856474863 a86.0,86.0 0 0,1 -40.68145358897372,12.25698825130547" fill="none" id="id54" stroke="none" /><text fill="#e1ed5e" style="font-size:6.75px; font-family:Arial;" text-anchor="middle"><textPath startOffset="21.466115282336833" xlink:href="#id54">June</textPath></text><line stroke="#e1ed5e" stroke-width="0.3" x1="102.19456741930631" x2="102.32365962044197" y1="184.97166512339345" y2="189.96999836594603" /><path d="M 102.22038585953345 185.97133177190398 a86.0,86.0 0 0,1 -42.740103519485714,-10.115201625700543" fill="none" id="id55" stroke="none" /><text fill="#e1ed5e" style="font-size:6.75px; font-family:Arial;" text-anchor="middle"><textPath startOffset="22.20632615414155" xlink:href="#id55">July</textPath></text><line stroke="#e1ed5e" stroke-width="0.3" x1="58.666819895761336" x2="56.23545636021788" y1="174.27360380694188" y2="178.64263932499728" /><path d="M 58.180547188652646 175.14741091055294 a86.0,86.0 0 0,1 -31.652253787137756,-30.449443065178592" fill="none" id="id56" stroke="none" /><text fill="#e1ed5e" style="font-size:6.75px; font-family:Arial;" text-anchor="middle"><textPath startOffset="22.20632615414155" xlink:href="#id56">August</textPath></text><line stroke="#e1ed5e" stroke-width="0.3" x1="26.63291911575756" x2="22.317208475507996" y1="142.92168965132927" y2="145.44649492493687" /><path d="M 25.769776987707644 143.4266507060508 a86.0,86.0 0 0,1 -11.730757126820373,-40.83630448921669" fill="none" id="id57" stroke="none" /><text fill="#e1ed5e" style="font-size:6.75px; font-family:Arial;" text-anchor="middle"><textPath startOffset="21.46611528233685" xlink:href="#id57">September</textPath></text><line stroke="#e1ed5e" stroke-width="0.3" x1="15.007084014347285" x2="10.007500721073583" y1="101.09737516637583" y2="101.16192664675087" /><path d="M 14.007167355692545 101.11028546245083 a86.0,86.0 0 0,1 10.666146001902534,-42.60595125391555" fill="none" id="id58" stroke="none" /><text fill="#e1ed5e" style="font-size:6.75px; font-family:Arial;" text-anchor="middle"><textPath startOffset="22.20632615414155" xlink:href="#id58">October</textPath></text><line stroke="#e1ed5e" stroke-width="0.3" x1="26.266209847984243" x2="21.928928074336255" y1="57.711370442889674" y2="55.22380399835377" /><path d="M 25.398753493254645 57.213857153982495 a86.0,86.0 0 0,1 29.58750427330803,-30.492523968695096" fill="none" id="id59" stroke="none" /><text fill="#e1ed5e" style="font-size:6.75px; font-family:Arial;" text-anchor="middle"><textPath startOffset="21.46611528233685" xlink:href="#id59">November</textPath></text><line stroke="#e1ed5e" stroke-width="0.3" x1="56.76296977257108" x2="54.21961505331056" y1="26.818313649435495" y2="22.513508569990535" /><path d="M 56.25429882871898 25.957352633546506 a86.0,86.0 0 0,1 42.26535254187918,-11.944610805530505" fill="none" id="id60" stroke="none" /><text fill="#e1ed5e" style="font-size:6.75px; font-family:Arial;" text-anchor="middle"><textPath startOffset="22.20632615414155" xlink:href="#id60">December</textPath></text></svg>