<?xml version="1.0" encoding="utf-8" ?>
<svg baseProfile="full" height="200mm" version="1.1" viewBox="0,0,200,200" width="200mm" xmlns="http://www.w3.org/2000/svg" xmlns:ev="http://www.w3.org/2001/xml-events" xmlns:xlink="http://www.w3.org/1999/xlink"><defs /><rect fill="#1a1a1a" height="200" width="200" x="0" y="0" /><text alignment-baseline="middle" fill="#e1ed5e" style="dominant-baseline: central; font-size:9.0px; font-family:Arial;" text-anchor="middle" x="100.0" y="100.0">2023</text><line stroke="#e1ed5e" stroke-width="0.3" x1="100.0" x2="100.0" y1="15.0" y2="10.0" /><path d="M 100.0 14.0 a86.0,86.0 0 0,1 42.46469731375804,11.215312516191453" fill="none" id="id25" stroke="none" /><text fill="#e1ed5e" style="font-size:6.75px; font-family:Arial;" text-anchor="middle"><textPath startOffset="22.20632615414155" xlink:href="#id25">January</textPath></text><path d="M 110.05341064243156 81.56283822128135 l 11.72091262457786 -21.49522882726901 a45.48315043227986,45.48315043227986 0 0,0 0.6841443606985718,0.38072559602137357 l -12.089181074348469 21.290287833687454" fill="#ffc011" stroke="none" /><line stroke="#e1ed5e" stroke-width="0.3" x1="143.23703022742887" x2="145.7803849466894" y1="26.81831364943548" y2="22.513508569990506" /><path d="M 143.74570117128098 25.957352633546492 a86.0,86.0 0 0,1 28.547481713284135,27.462654790039103" fill="none" id="id26" stroke="none" /><text fill="#e1ed5e" style="font-size:6.75px; font-family:Arial;" text-anchor="middle"><textPath startOffset="19.985693538727396" xlink:href="#id26">February</textPath></text><path d="M 114.16331599549186 84.49514656593476 l 11.717448929559337 -12.827315886462571 a38.37350402964026,38.37350402964026 0 0,0 0.48385720658168657,0.44969254085432236 l -11.93651401993587 12.623718759533608" fill="#ff4906" stroke="none" /><line stroke="#e1ed5e" stroke-width="0.3" x1="172.23445277983987" x2="176.4835382374775" y1="55.19839476539836" y2="52.563006222186495" /><path d="M 173.08426987136738 54.67131705675599 a86.0,86.0 0 0,1 12.851231095245387,41.99856678651699" fill="none" id="id27" stroke="none" /><text fill="#e1ed5e" style="font-size:6.75px; font-family:Arial;" text-anchor="middle"><textPath startOffset="22.20632615414155" xlink:href="#id27">March</textPath></text><path d="M 118.56541770881063 90.18545643968196 l 55.696253126431905 -29.44363068095414 a84.0,84.0 0 0,0 0.6647622673595346,1.2841091109586207 l -56.19482482695156 28.480548847735175" fill="#4dd2ff" stroke="none" /><line stroke="#e1ed5e" stroke-width="0.3" x1="184.98032266829074" x2="189.97916517819016" y1="98.17113171792111" y2="98.06355123074" /><path d="M 185.9800911702706 98.14961562048488 a86.0,86.0 0 0,1 -9.607161424134198,41.387399972396054" fill="none" id="id28" stroke="none" /><text fill="#e1ed5e" style="font-size:6.75px; font-family:Arial;" text-anchor="middle"><textPath startOffset="21.466115282336823" xlink:href="#id28">April</textPath></text><line stroke="#e1ed5e" stroke-width="0.3" x1="174.80103733775053" x2="179.2010983576182" y1="140.37084112569926" y2="142.7455964860345" /><path d="M 175.68104954172406 140.8457921977663 a86.0,86.0 0 0,1 -30.038265399797805,32.042727171017184" fill="none" id="id29" stroke="none" /><text fill="#e1ed5e" style="font-size:6.75px; font-family:Arial;" text-anchor="middle"><textPath startOffset="22.206326154141568" xlink:href="#id29">May</textPath></text><path d="M 114.55890576462653 115.13401014063108 l 26.83453167939273 27.894546549078047 a59.706560395248424,59.706560395248424 0 0,0 -0.7467987556006085,0.7061448362484501 l -26.350397089401312 -28.35232602207242" fill="#70ff27" stroke="none" /><line stroke="#e1ed5e" stroke-width="0.3" x1="143.8653032363475" x2="146.44561519142675" y1="172.8068346515853" y2="177.08958963109032" /><path d="M 144.38136562736335 173.6633856474863 a86.0,86.0 0 0,1 -40.68145358897372,12.25698825130547" fill="none" id="id30" stroke="none" /><text fill="#e1ed5e" style="font-size:6.75px; font-family:Arial;" text-anchor="middle"><textPath startOffset="21.466115282336833" xlink:href="#id30">June</textPath></text><path d="M 107.2578585660854 119.70592522655815 l 13.51156723437952 36.68546737166644 a60.09457718669894,60.09457718669894 0 0,0 -0.9737623394695348,0.349156530129193 l -12.87808533428025 -36.9126114428356" fill="#6bff28" stroke="none" /><path d="M 106.91757812671514 119.82793768551818 l 5.607174017390961 16.071910569296115 a38.021947885267316,38.021947885267316 0 0,0 -0.6198125511338285,0.21027406951000827 l -5.329691733319906 -16.166047625704245" fill="#ff4306" stroke="none" /><path d="M 104.48393922423573 120.51570834832081 l 3.4097327992217297 15.600809947744063 a36.96908102514727,36.96908102514727 0 0,0 -0.6228560252288698,0.13052553600240854 l -3.1406853125634817 -15.657191464473012" fill="#ff3004" stroke="none" /><path d="M 104.13013068566511 120.58985236759428 l 2.6107928029681156 13.015529644635068 a34.27479758754929,34.27479758754929 0 0,0 -0.5794601498847436,0.11105491685219139 l -2.3863650385116677 -13.058541759835727" fill="#ff0000" stroke="none" /><path d="M 103.06178313531738 120.77559828337769 l 1.9434696132463969 13.18732979322299 a34.3297689857266,34.3297689857266 0 0,0 -0.5853575592833228,0.08112522392644089 l -1.7161834627762436 -13.218829582642034" fill="#ff0100" stroke="none" /><path d="M 101.98527174616119 120.90594882070398 l 1.2693518332489115 13.366938059075109 a34.42707291823959,34.42707291823959 0 0,0 -0.5904336159538225,0.0509450967995844 l -1.0390738995535473 -13.386807408153356" fill="#ff0300" stroke="none" /><line stroke="#e1ed5e" stroke-width="0.3" x1="102.19456741930631" x2="102.32365962044197" y1="184.97166512339345" y2="189.96999836594603" /><path d="M 102.22038585953345 185.97133177190398 a86.0,86.0 0 0,1 -42.740103519485714,-10.115201625700543" fill="none" id="id31" stroke="none" /><text fill="#e1ed5e" style="font-size:6.75px; font-family:Arial;" text-anchor="middle"><textPath startOffset="22.20632615414155" xlink:href="#id31">July</textPath></text><line stroke="#e1ed5e" stroke-width="0.3" x1="58.666819895761336" x2="56.23545636021788" y1="174.27360380694188" y2="178.64263932499728" /><path d="M 58.180547188652646 175.14741091055294 a86.0,86.0 0 0,1 -31.652253787137756,-30.449443065178592" fill="none" id="id32" stroke="none" /><text fill="#e1ed5e" style="font-size:6.75px; font-family:Arial;" text-anchor="middle"><textPath startOffset="22.20632615414155" xlink:href="#id32">August</textPath></text><path d="M 89.7882731507175 118.34994917583269 l -13.666382118412603 24.55778743318035 a49.10435773718621,49.10435773718621 0 0,0 -0.7350483525822211,-0.4173796381797882 l 14.087079237916031 -24.318904629205928" fill="#fff817" stroke="none" /><path d="M 89.4739219176387 118.17145234162733 l -13.467898783953284 23.249996720484884 a47.86906483592922,47.86906483592922 0 0,0 -0.7094471886079363,-0.4191539040473208 l 13.866113843589602 -23.014724244143814" fill="#ffe515" stroke="none" /><line stroke="#e1ed5e" stroke-width="0.3" x1="26.63291911575756" x2="22.317208475507996" y1="142.92168965132927" y2="145.44649492493687" /><path d="M 25.769776987707644 143.4266507060508 a86.0,86.0 0 0,1 -11.730757126820373,-40.83630448921669" fill="none" id="id33" stroke="none" /><text fill="#e1ed5e" style="font-size:6.75px; font-family:Arial;" text-anchor="middle"><textPath startOffset="21.46611528233685" xlink:href="#id33">September</textPath></text><line stroke="#e1ed5e" stroke-width="0.3" x1="15.007084014347285" x2="10.007500721073583" y1="101.09737516637583" y2="101.16192664675087" /><path d="M 14.007167355692545 101.11028546245083 a86.0,86.0 0 0,1 10.666146001902534,-42.60595125391555" fill="none" id="id34" stroke="none" /><text fill="#e1ed5e" style="font-size:6.75px; font-family:Arial;" text-anchor="middle"><textPath startOffset="22.20632615414155" xlink:href="#id34">October</textPath></text><line stroke="#e1ed5e" stroke-width="0.3" x1="26.266209847984243" x2="21.928928074336255" y1="57.711370442889674" y2="55.22380399835377" /><path d="M 25.398753493254645 57.213857153982495 a86.0,86.0 0 0,1 29.58750427330803,-30.492523968695096" fill="none" id="id35" stroke="none" /><text fill="#e1ed5e" style="font-size:6.75px; font-family:Arial;" text-anchor="middle"><textPath startOffset="21.46611528233685" xlink:href="#id35">November</textPath></text><line stroke="#e1ed5e" stroke-width="0.3" x1="56.76296977257108" x2="54.21961505331056" y1="26.818313649435495" y2="22.513508569990535" /><path d="M 56.25429882871898 25.957352633546506 a86.0,86.0 0 0,1 42.26535254187918,-11.944610805530505" fill="none" id="id36" stroke="none" /><text fill="#e1ed5e" style="font-size:6.75px; font-family:Arial;" text-anchor="middle"><textPath startOffset="22.20632615414155" xlink:href="#id36">December</textPath></text></svg>