<?xml version="1.0" encoding="utf-8" ?>
<svg baseProfile="full" height="200mm" version="1.1" viewBox="0,0,200,200" width="200mm" xmlns="http://www.w3.org/2000/svg" xmlns:ev="http://www.w3.org/2001/xml-events" xmlns:xlink="http://www.w3.org/1999/xlink"><defs /><rect fill="#1a1a1a" height="200" width="200" x="0" y="0" /><text alignment-baseline="middle" fill="#e1ed5e" style="dominant-baseline: central; font-size:9.0px; font-family:Arial;" text-anchor="middle" x="100.0" y="100.0">2022</text><line stroke="#e1ed5e" stroke-width="0.3" x1="100.0" x2="100.0" y1="15.0" y2="10.0" /><path d="M 100.0 14.0 a86.0,86.0 0 0,1 42.46469731375804,11.215312516191453" fill="none" id="id13" stroke="none" /><text fill="#e1ed5e" style="font-size:6.75px; font-family:Arial;" text-anchor="middle"><textPath startOffset="22.20632615414155" xlink:href="#id13">January</textPath></text><path d="M 105.71112130821622 79.79150937346287 l 17.13336392464865 -60.62547187961136 a84.0,84.0 0 0,0 1.3880391291062915,0.40520668432518603 l -18.174393271478365 60.321566866367476" fill="#4dd2ff" stroke="none" /><line stroke="#e1ed5e" stroke-width="0.3" x1="143.23703022742887" x2="145.7803849466894" y1="26.81831364943548" y2="22.513508569990506" /><path d="M 143.74570117128098 25.957352633546492 a86.0,86.0 0 0,1 28.547481713284135,27.462654790039103" fill="none" id="id14" stroke="none" /><text fill="#e1ed5e" style="font-size:6.75px; font-family:Arial;" text-anchor="middle"><textPath startOffset="19.985693538727396" xlink:href="#id14">February</textPath></text><path d="M 117.45458315368197 88.32363383020206 l 10.569532252203937 -7.070562942328913 a33.71644102537397,33.71644102537397 0 0,0 0.318545492532871,0.48516663927762305 l -10.689674380094733 6.887578239073616" fill="#ff6409" stroke="none" /><path d="M 117.65298651832404 88.62581576622439 l 10.681285757485744 -6.8821732760707155 a33.70646191647894,33.70646191647894 0 0,0 0.3100551557357328,0.4904327964672222 l -10.798168509467432 6.697292831889287" fill="#ff6409" stroke="none" /><line stroke="#e1ed5e" stroke-width="0.3" x1="172.23445277983987" x2="176.4835382374775" y1="55.19839476539836" y2="52.563006222186495" /><path d="M 173.08426987136738 54.67131705675599 a86.0,86.0 0 0,1 12.851231095245387,41.99856678651699" fill="none" id="id15" stroke="none" /><text fill="#e1ed5e" style="font-size:6.75px; font-family:Arial;" text-anchor="middle"><textPath startOffset="22.20632615414155" xlink:href="#id15">March</textPath></text><path d="M 119.196687751892 91.48605970444005 l 11.94531897641404 -5.297879190986202 a34.06744693391031,34.06744693391031 0 0,0 0.2331337436354473,0.538104823320408 l -12.034743429892169 5.0914752230791915" fill="#ff6909" stroke="none" /><path d="M 119.34039704204932 91.81776055985345 l 20.427665949779144 -8.642224543840639 a43.180567648775984,43.180567648775984 0 0,0 0.2837134230225975,0.6870345577960704 l -20.57340105968794 8.289315415591267" fill="#ffeb16" stroke="none" /><line stroke="#e1ed5e" stroke-width="0.3" x1="184.98032266829074" x2="189.97916517819016" y1="98.17113171792111" y2="98.06355123074" /><path d="M 185.9800911702706 98.14961562048488 a86.0,86.0 0 0,1 -9.607161424134198,41.387399972396054" fill="none" id="id16" stroke="none" /><text fill="#e1ed5e" style="font-size:6.75px; font-family:Arial;" text-anchor="middle"><textPath startOffset="21.466115282336823" xlink:href="#id16">April</textPath></text><path d="M 120.64145759157962 103.86396538481128 l 13.17437471676613 2.4661692444085594 a34.40321379072323,34.40321379072323 0 0,0 -0.1139730423463415,0.5811460874764683 l -13.129971741444125 -2.6925790589529726" fill="#ff6e0a" stroke="none" /><line stroke="#e1ed5e" stroke-width="0.3" x1="174.80103733775053" x2="179.2010983576182" y1="140.37084112569926" y2="142.7455964860345" /><path d="M 175.68104954172406 140.8457921977663 a86.0,86.0 0 0,1 -30.038265399797805,32.042727171017184" fill="none" id="id17" stroke="none" /><text fill="#e1ed5e" style="font-size:6.75px; font-family:Arial;" text-anchor="middle"><textPath startOffset="22.206326154141568" xlink:href="#id17">May</textPath></text><path d="M 118.30583269289576 110.29060199501023 l 12.352825323159633 6.944126008747601 a35.170856695692706,35.170856695692706 0 0,0 -0.30120992239671274,0.5251848887585938 l -12.231463404610539 -7.155730743364509" fill="#ff790b" stroke="none" /><path d="M 118.12598468904814 110.60418214915192 l 13.690261663897742 8.009166444967741 a36.86095872162794,36.86095872162794 0 0,0 -0.32511211882589147,0.5449066115663298 l -13.550368669373622 -8.243635150420175" fill="#ff920d" stroke="none" /><path d="M 115.56566222782051 114.09645910891815 l 9.676084478888521 8.762783567749825 a34.05423252044385,34.05423252044385 0 0,0 -0.3972241228015019,0.43110833258397974 l -9.523813948091295 -8.92804315513514" fill="#ff6909" stroke="none" /><path d="M 115.07121518719521 114.62390073753431 l 9.494340890282173 9.212548359455747 a34.229268922211645,34.229268922211645 0 0,0 -0.41394494001385,0.41932403877767405 l -9.334355325212789 -9.374612892214085" fill="#ff6c09" stroke="none" /><path d="M 114.81725581225074 114.88116024355365 l 13.809118401737935 13.86867489920544 a40.571200640049355,40.571200640049355 0 0,0 -0.4991224579775218,0.4884963764830553 l -13.56834599138462 -14.104321378611067" fill="#ffc712" stroke="none" /><line stroke="#e1ed5e" stroke-width="0.3" x1="143.8653032363475" x2="146.44561519142675" y1="172.8068346515853" y2="177.08958963109032" /><path d="M 144.38136562736335 173.6633856474863 a86.0,86.0 0 0,1 -40.68145358897372,12.25698825130547" fill="none" id="id18" stroke="none" /><text fill="#e1ed5e" style="font-size:6.75px; font-family:Arial;" text-anchor="middle"><textPath startOffset="21.466115282336833" xlink:href="#id18">June</textPath></text><path d="M 105.18746579009965 120.34920634021253 l 7.757340793563992 30.430220621570435 a52.40341801882309,52.40341801882309 0 0,0 -0.8760022744636319,0.2153000460337117 l -7.2323852343571495 -30.559241925918176" fill="#9eff22" stroke="none" /><line stroke="#e1ed5e" stroke-width="0.3" x1="102.19456741930631" x2="102.32365962044197" y1="184.97166512339345" y2="189.96999836594603" /><path d="M 102.22038585953345 185.97133177190398 a86.0,86.0 0 0,1 -42.740103519485714,-10.115201625700543" fill="none" id="id19" stroke="none" /><text fill="#e1ed5e" style="font-size:6.75px; font-family:Arial;" text-anchor="middle"><textPath startOffset="22.20632615414155" xlink:href="#id19">July</textPath></text><line stroke="#e1ed5e" stroke-width="0.3" x1="58.666819895761336" x2="56.23545636021788" y1="174.27360380694188" y2="178.64263932499728" /><path d="M 58.180547188652646 175.14741091055294 a86.0,86.0 0 0,1 -31.652253787137756,-30.449443065178592" fill="none" id="id20" stroke="none" /><text fill="#e1ed5e" style="font-size:6.75px; font-family:Arial;" text-anchor="middle"><textPath startOffset="22.20632615414155" xlink:href="#id20">August</textPath></text><line stroke="#e1ed5e" stroke-width="0.3" x1="26.63291911575756" x2="22.317208475507996" y1="142.92168965132927" y2="145.44649492493687" /><path d="M 25.769776987707644 143.4266507060508 a86.0,86.0 0 0,1 -11.730757126820373,-40.83630448921669" fill="none" id="id21" stroke="none" /><text fill="#e1ed5e" style="font-size:6.75px; font-family:Arial;" text-anchor="middle"><textPath startOffset="21.46611528233685" xlink:href="#id21">September</textPath></text><path d="M 81.87401531095188 110.60418214915194 l -10.584120266518466 6.19199128323805 a33.26231453958929,33.26231453958929 0 0,0 -0.2848648034903283,-0.4966857962111375 l 10.689137066161171 -6.008885641168606" fill="#ff5d08" stroke="none" /><path d="M 81.51974371655577 109.97397251340807 l -17.205191417849218 9.2858077105395 a40.55108274653727,40.55108274653727 0 0,0 -0.3262382723234557,-0.6171198651330172 l 17.36248219839756 -8.988272830320355" fill="#ffc712" stroke="none" /><path d="M 81.35079622478065 109.6543875284942 l -13.422853408080128 6.948791492748347 a36.11485020847048,36.11485020847048 0 0,0 -0.281044612454189,-0.554527683081415 l 13.540476690320583 -6.716709597964247" fill="#ff870c" stroke="none" /><path d="M 80.87730276802145 108.67885076344099 l -17.326644730913667 7.863710962242864 a40.02762643445043,40.02762643445043 0 0,0 -0.2793526433816477,-0.6298664638815755 l 17.459438459026593 -7.564296161868593" fill="#ffbf11" stroke="none" /><path d="M 80.73074385275274 108.34839909993369 l -17.837699974781447 7.728177843316816 a40.43986299252778,40.43986299252778 0 0,0 -0.27123404872452805,-0.6411171699420409 l 17.968085004698285 -7.419986147708616" fill="#ffc512" stroke="none" /><path d="M 80.58989483394504 108.01547362559985 l -17.661008783907825 7.293177903871828 a40.10763395093159,40.10763395093159 0 0,0 -0.258020785480595,-0.640386429432225 l 17.78393218364581 -6.988092106596798" fill="#ffc011" stroke="none" /><path d="M 80.45479744820244 107.68017299344265 l -58.19621522430418 22.867862295198915 a83.5279025106849,83.5279025106849 0 0,0 -0.5143159813422501,-1.3427167333078442 l 58.58122548523995 -21.862721995057914" fill="#4cd7ff" stroke="none" /><path d="M 80.32549172779594 107.34259656027581 l -18.30952337498688 6.833179335079134 a40.54305467537108,40.54305467537108 0 0,0 -0.23838493510223982,-0.6559329591456556 l 18.424432571094346 -6.516998578927361" fill="#ffc612" stroke="none" /><path d="M 80.20201598880116 107.00284435728193 l -18.03856453081878 6.380511256431762 a40.133759019752645,40.133759019752645 0 0,0 -0.22476657378275328,-0.6532768743136951 l 18.14572193554476 -6.069061679028771" fill="#ffc111" stroke="none" /><path d="M 80.0844068197444 106.66101706037122 l -17.88591305373008 5.982165377294747 a39.85980350817304,39.85980350817304 0 0,0 -0.21203090118250564,-0.6525640139418334 l 17.986236205928833 -5.67340246337511" fill="#ffbd11" stroke="none" /><path d="M 79.76711848015287 105.62410040840567 l -18.203205884615105 5.059914849475672 a39.89337033886835,39.89337033886835 0 0,0 -0.17821303869996727,-0.6631970138802364 l 18.287606999656845 -4.745826902419896" fill="#ffbd11" stroke="none" /><path d="M 79.67330655649465 105.27499134158121 l -60.54425005893963 15.711871472409962 a83.54973317580932,83.54973317580932 0 0,0 -0.349272441262031,-1.3951697833586887 l 60.805733814496726 -14.667373849653881" fill="#4cd6ff" stroke="none" /><path d="M 79.4281124754447 104.21870165774334 l -14.69521692898325 3.013565767613723 a36.00103260531118,36.00103260531118 0 0,0 -0.11926639291889125,-0.6081367680053869 l 14.744913254877808 -2.7601652725403816" fill="#ff860c" stroke="none" /><path d="M 79.35854240842038 103.8639653848113 l -6.155288677972539 1.152235605440433 a27.2622061288033,27.2622061288033 0 0,0 -0.08237542707404491,-0.4620051416612932 l 6.174210547385773 -1.0461117130459263" fill="#ff0000" stroke="none" /><line stroke="#e1ed5e" stroke-width="0.3" x1="15.007084014347285" x2="10.007500721073583" y1="101.09737516637583" y2="101.16192664675087" /><path d="M 14.007167355692545 101.11028546245083 a86.0,86.0 0 0,1 10.666146001902534,-42.60595125391555" fill="none" id="id22" stroke="none" /><text fill="#e1ed5e" style="font-size:6.75px; font-family:Arial;" text-anchor="middle"><textPath startOffset="22.20632615414155" xlink:href="#id22">October</textPath></text><path d="M 79.00175016825051 100.2711162175752 l -45.669383616824014 0.5896544066478866 a66.67319008192786,66.67319008192786 0 0,0 -0.004939222025139809,-1.1477012510734113 l 45.67276713613866 0.1965563226292" fill="#35ff6a" stroke="none" /><path d="M 79.54389044137918 95.25157060432595 l -8.945860814141577 -2.0765819784914368 a30.18371484854518,30.18371484854518 0 0,0 0.12183757073510668,-0.5050953886266824 l 8.908790443145655 2.2302625987775158" fill="#ff2e04" stroke="none" /><path d="M 79.81627453868168 94.20196356495316 l -18.42132077687226 -5.291762873543099 a40.16631976865237,40.16631976865237 0 0,0 0.19661241937823482,-0.662879336874117 l 18.327502460382316 5.608071597163756" fill="#ffc112" stroke="none" /><path d="M 80.02781315780177 93.51064311812611 l -34.51135813875536 -11.213420003029425 a57.28738939005914,57.28738939005914 0 0,0 0.3127965285816397,-0.9352218069654599 l 34.31322431640196 11.805814912917207" fill="#64ff29" stroke="none" /><path d="M 80.2630227832202 92.82701384747504 l -17.847252508877652 -6.486205749782111 a39.989346675021395,39.989346675021395 0 0,0 0.2406890442162095,-0.6449269754353515 l 17.732958876159813 6.792455862246804" fill="#ffbf11" stroke="none" /><path d="M 80.52162464483688 92.15188598940014 l -17.52242381542792 -7.0600333620266005 a39.891252140618,39.891252140618 0 0,0 0.26210131801712633,-0.6346991312685359 l 17.398300810524592 7.360607063748447" fill="#ffbd11" stroke="none" /><path d="M 81.10775173730289 90.83032412892265 l -17.34167588479109 -8.417079042878873 a40.27643489100657,40.27643489100657 0 0,0 0.30809552281781,-0.6211017737570644 l 17.19422034901987 8.714340405134898" fill="#ffc312" stroke="none" /><line stroke="#e1ed5e" stroke-width="0.3" x1="26.266209847984243" x2="21.928928074336255" y1="57.711370442889674" y2="55.22380399835377" /><path d="M 25.398753493254645 57.213857153982495 a86.0,86.0 0 0,1 29.58750427330803,-30.492523968695096" fill="none" id="id23" stroke="none" /><text fill="#e1ed5e" style="font-size:6.75px; font-family:Arial;" text-anchor="middle"><textPath startOffset="21.46611528233685" xlink:href="#id23">November</textPath></text><path d="M 83.84228863543731 86.58626213691792 l -48.32200334916027 -40.115748531453804 a83.80357703120973,83.80357703120973 0 0,0 0.9309754796759736,-1.1019813231540738 l 47.62431725599717 40.94158880423699" fill="#4dd4ff" stroke="none" /><path d="M 85.31137513191541 84.99185889309783 l -13.20406039180572 -13.49128344715632 a39.8775512151859,39.8775512151859 0 0,0 0.4947033473933109,-0.4759042282394204 l 12.96987380079998 13.716570762158048" fill="#ffbd11" stroke="none" /><line stroke="#e1ed5e" stroke-width="0.3" x1="56.76296977257108" x2="54.21961505331056" y1="26.818313649435495" y2="22.513508569990535" /><path d="M 56.25429882871898 25.957352633546506 a86.0,86.0 0 0,1 42.26535254187918,-11.944610805530505" fill="none" id="id24" stroke="none" /><text fill="#e1ed5e" style="font-size:6.75px; font-family:Arial;" text-anchor="middle"><textPath startOffset="22.20632615414155" xlink:href="#id24">December</textPath></text></svg>