<?xml version="1.0" encoding="utf-8" ?>
<svg baseProfile="full" height="200mm" version="1.1" viewBox="0,0,200,200" width="200mm" xmlns="http://www.w3.org/2000/svg" xmlns:ev="http://www.w3.org/2001/xml-events" xmlns:xlink="http://www.w3.org/1999/xlink"><defs /><rect fill="#1a1a1a" height="200" width="200" x="0" y="0" /><text alignment-baseline="middle" fill="#e1ed5e" style="dominant-baseline: central; font-size:9.0px; font-family:Arial;" text-anchor="middle" x="100.0" y="100.0">2025</text><line stroke="#e1ed5e" stroke-width="0.3" x1="100.0" x2="100.0" y1="15.0" y2="10.0" /><path d="M 100.0 14.0 a86.0,86.0 0 0,1 42.46469731375804,11.215312516191453" fill="none" id="id49" stroke="none" /><text fill="#e1ed5e" style="font-size:6.75px; font-family:Arial;" text-anchor="middle"><textPath startOffset="22.20632615414155" xlink:href="#id49">January</textPath></text><path d="M 100.0 79.0 l 0.0 -16.181622783449754 a37.181622783449754,37.181622783449754 0 0,0 0.640020515423418,0.0055088586379373845 l -0.2785400361508896 16.179225301420374" fill="#ffc612" stroke="none" /><path d="M 100.36148047927253 79.00311137660856 l 0.08113048029005089 -4.712530153884616 a25.71322846954228,25.71322846954228 0 0,0 0.442479804382934,0.011427947904630179 l -0.16223691986785266 4.710435413837627" fill="#ff2803" stroke="none" /><path d="M 101.44485096284872 79.0497635885617 l 0.33201010840898665 -4.814123007151862 a25.82555810658981,25.82555810658981 0 0,0 0.4432278336575185,0.034403010327067836 l -0.4148281314288463 4.807694734636329" fill="#ff2a04" stroke="none" /><path d="M 102.52436894288641 79.15227682838746 l 0.3756772988375474 -3.102564048767406 a24.125225929363488,24.125225929363488 0 0,0 0.4118351508141629,0.05346802232364882 l -0.4290271781595564 3.0956377032796207" fill="#ff1101" stroke="none" /><path d="M 106.40334571778207 80.00007090966166 l 0.7127166830133577 -2.2260680197516445 a23.33737970787944,23.33737970787944 0 0,0 0.38152968274124976,0.12578433784204512 l -0.7509291879970249 2.213469957650363" fill="#ff0600" stroke="none" /><line stroke="#e1ed5e" stroke-width="0.3" x1="143.23703022742887" x2="145.7803849466894" y1="26.81831364943548" y2="22.513508569990506" /><path d="M 143.74570117128098 25.957352633546492 a86.0,86.0 0 0,1 28.547481713284135,27.462654790039103" fill="none" id="id50" stroke="none" /><text fill="#e1ed5e" style="font-size:6.75px; font-family:Arial;" text-anchor="middle"><textPath startOffset="19.985693538727396" xlink:href="#id50">February</textPath></text><path d="M 110.99172775467656 82.1063720568725 l 1.7147224163235584 -2.7914269374421194 a24.27602462019442,24.27602462019442 0 0,0 0.35417661905557013,0.22178536636037255 l -1.7625181877513918 2.761497229758803" fill="#ff1302" stroke="none" /><path d="M 111.90073688211348 82.69761687909136 l 1.2635558406171483 -1.8370734069315104 a23.229666357285918,23.229666357285918 0 0,0 0.3275038498216021,0.22943737619227497 l -1.2949908300224013 1.8150511879752997" fill="#ff0400" stroke="none" /><path d="M 112.77801427241765 83.33499621200491 l 5.699265268639017 -7.432944999574481 a30.366445215182452,30.366445215182452 0 0,0 0.4120689667553184,0.3216263646821681 l -5.826366790553766 7.3337402456690866" fill="#ff6a09" stroke="none" /><path d="M 113.06298171725822 83.55741782278167 l 13.467550639574752 -16.951819493439146 a42.650383469298035,42.650383469298035 0 0,0 0.5708989449114708,0.4616272434246809 l -13.757352983050712 16.717486152750336" fill="#f4ff19" stroke="none" /><path d="M 113.34407831869373 83.78471172551755 l 8.59663450085159 -10.44634955614648 a34.528796834546434,34.528796834546434 0 0,0 0.4556855143125919,0.38162351342296097 l -8.7751775521233 10.296824885329698" fill="#ffa30f" stroke="none" /><path d="M 113.6212207817346 84.01681056812373 l 9.280209381215016 -10.889431049112321 a35.30741048312247,35.30741048312247 0 0,0 0.45917489317452354,0.3981919425764093 l -9.466278073036305 10.72807411311624" fill="#ffad10" stroke="none" /><path d="M 114.68862486808459 84.99185889309783 l 2.8231349002725223 -2.88454551243743 a25.036173122954423,25.036173122954423 0 0,0 0.305398631186384,0.3040871524087015 l -2.872369331626227 2.8355225093786096" fill="#ff1f03" stroke="none" /><path d="M 117.04232023915458 87.72973835380427 l 4.223325219736758 -3.040742383427823 a26.204093595818474,26.204093595818474 0 0,0 0.26040303061548603,0.36832161963385646 l -4.275040870156127 2.9675942634621735" fill="#ff2f04" stroke="none" /><path d="M 117.45458315368197 88.32363383020206 l 5.17856532577243 -3.4642376988064956 a27.23044795075961,27.23044795075961 0 0,0 0.2572672616257907,0.3918356895483676 l -5.237429222756146 3.3745839452804542" fill="#ff3e05" stroke="none" /><line stroke="#e1ed5e" stroke-width="0.3" x1="172.23445277983987" x2="176.4835382374775" y1="55.19839476539836" y2="52.563006222186495" /><path d="M 173.08426987136738 54.67131705675599 a86.0,86.0 0 0,1 12.851231095245387,41.99856678651699" fill="none" id="id51" stroke="none" /><text fill="#e1ed5e" style="font-size:6.75px; font-family:Arial;" text-anchor="middle"><textPath startOffset="22.20632615414155" xlink:href="#id51">March</textPath></text><path d="M 118.3937258080291 89.86733742301442 l 6.776683114852985 -3.7331122639648915 a28.73689609691759,28.73689609691759 0 0,0 0.2349472530210124,0.4353215775442252 l -6.839938467092463 3.615909703088208" fill="#ff5407" stroke="none" /><path d="M 118.73160827565052 90.50648371742162 l 14.009588613372445 -7.100311711416955 a36.706145278686925,36.706145278686925 0 0,0 0.28078450962374224,0.566044437698443 l -14.129733135949595 6.858107685219562" fill="#ffbf11" stroke="none" /><path d="M 119.47837535516314 92.15188598940014 l 30.389348448693276 -12.244299998560795 a53.76332372624689,53.76332372624689 0 0,0 0.3384694369718119,0.8613677984669452 l -30.59561143554679 11.719383195198064" fill="#74ff27" stroke="none" /><path d="M 120.28053869075195 94.5502522615342 l 7.495606259304835 -2.0142050407519037 a28.761516291338967,28.761516291338967 0 0,0 0.12436434191550601,0.4792265408083084 l -7.529166933090644 1.884882074394745" fill="#ff5407" stroke="none" /><path d="M 120.45610955862082 95.25157060432595 l 6.1904938066365105 -1.436985008363087 a27.35508768501783,27.35508768501783 0 0,0 0.10252375927915909,0.45959390995948723 l -6.214311952917708 1.330212928853636" fill="#ff4006" stroke="none" /><path d="M 120.6074358757038 95.95851677861258 l 22.78434858544975 -4.468414366238697 a44.21838210150945,44.21838210150945 0 0,0 0.1400549369218636,0.7481790733239686 l -22.85788924628147 4.075557215452166" fill="#e1ff1b" stroke="none" /><path d="M 120.67395015179393 96.31383870115 l 2.429853161311916 -0.43324234698026887 a23.468174490743003,23.468174490743003 0 0,0 0.06748568433402657,0.39830432908497826 l -2.436950707166165 0.3913522295794533" fill="#ff0801" stroke="none" /><path d="M 120.78858239683441 97.02765380044208 l 7.744308014179046 -1.1072791811747662 a28.82306677739241,28.82306677739241 0 0,0 0.06599658905143747,0.49175124532309733 l -7.762220602288319 0.9738095937870046" fill="#ff5507" stroke="none" /><path d="M 120.87857604477298 97.74499172005257 l 15.847870346915393 -1.711662652433351 a36.94003712569,36.94003712569 0 0,0 0.06283830016832526,0.632773107180824 l -15.874985772765948 1.438614014548092" fill="#ffc212" stroke="none" /><path d="M 120.98425023603335 99.18683210126433 l 12.694492448978416 -0.49192864334632014 a33.70402032143032,33.70402032143032 0 0,0 0.017475222444422917,0.5799175568536787 l -12.701079365878483 0.27334093906764234" fill="#ff980e" stroke="none" /><line stroke="#e1ed5e" stroke-width="0.3" x1="184.98032266829074" x2="189.97916517819016" y1="98.17113171792111" y2="98.06355123074" /><path d="M 185.9800911702706 98.14961562048488 a86.0,86.0 0 0,1 -9.607161424134198,41.387399972396054" fill="none" id="id52" stroke="none" /><text fill="#e1ed5e" style="font-size:6.75px; font-family:Arial;" text-anchor="middle"><textPath startOffset="21.466115282336823" xlink:href="#id52">April</textPath></text><path d="M 120.99513854157772 99.54816195383933 l 11.367281423749525 -0.24463616748677428 a32.36991353622197,32.36991353622197 0 0,0 0.007193816955890999,0.5571690510981939 l -11.369808247823132 0.04893085832811758" fill="#ff860c" stroke="none" /><path d="M 120.89721153311464 102.0752229133903 l 2.396375559278326 0.23797497871055281 a23.408162766840896,23.408162766840896 0 0,0 -0.04326909546178729,0.4006180855391474 l -2.3919241623154868 -0.2791893861344916" fill="#ff0701" stroke="none" /><path d="M 120.70491114924044 103.5080841355445 l 3.2239218547312727 0.5462370271138728 a24.269869571589076,24.269869571589076 0 0,0 -0.07333378896577128,0.4112948334609034 l -3.2140416234263127 -0.6016506113079945" fill="#ff1302" stroke="none" /><path d="M 120.5718875245553 104.21870165774334 l 4.556847441751549 0.9344781723920258 a25.651677983488838,25.651677983488838 0 0,0 -0.09242661299770107,0.43178636552141986 l -4.540086790029406 -1.0127783573296145" fill="#ff2703" stroke="none" /><path d="M 120.41448212921028 104.9243191809786 l 22.544086280787084 5.438015806008147 a44.190684382785406,44.190684382785406 0 0,0 -0.18473533820792906,0.7379258462390053 l -22.447139628284095 -5.825269491644549" fill="#e1ff1b" stroke="none" /><path d="M 120.13307415673323 105.97154293290107 l 4.161648346158793 1.2343600176137417 a25.34084802891896,25.34084802891896 0 0,0 -0.1276372992119221,0.41712607886926917 l -4.139784274440738 -1.305813069035068" fill="#ff2303" stroke="none" /><path d="M 120.02730092923936 106.31721596034902 l 60.08190278771807 18.951647881047055 a84.0,84.0 0 0,0 -0.4468309959350121,1.375204400088819 l -59.746779540766816 -19.98305118111367" fill="#4dd2ff" stroke="none" /><path d="M 119.67450827220406 107.3425965602758 l 4.3450955937000915 1.621605151140973 a25.637829124126814,25.637829124126814 0 0,0 -0.1578627602168472,0.41212985285067016 l -4.316538553889737 -1.696158570824787" fill="#ff2703" stroke="none" /><path d="M 118.97047184881838 109.00673069616215 l 11.369216641943638 5.397834768495206 a33.58553563577744,33.58553563577744 0 0,0 -0.2524460678551395,0.5201136718369823 l -11.274617317473783 -5.592737396297464" fill="#ff960d" stroke="none" /><path d="M 118.81262510543309 109.33194174019688 l 2.4316450602792226 1.2062096548561843 a23.71437643495677,23.71437643495677 0 0,0 -0.18454452105665667,0.36412384778803264 l -2.410521869436297 -1.2478877143469111" fill="#ff0b01" stroke="none" /><line stroke="#e1ed5e" stroke-width="0.3" x1="174.80103733775053" x2="179.2010983576182" y1="140.37084112569926" y2="142.7455964860345" /><path d="M 175.68104954172406 140.8457921977663 a86.0,86.0 0 0,1 -30.038265399797805,32.042727171017184" fill="none" id="id53" stroke="none" /><text fill="#e1ed5e" style="font-size:6.75px; font-family:Arial;" text-anchor="middle"><textPath startOffset="22.206326154141568" xlink:href="#id53">May</textPath></text><path d="M 118.30583269289576 110.29060199501023 l 18.41805886665173 10.353689804612795 a42.12874309999512,42.12874309999512 0 0,0 -0.36079858814967797,0.6290827502424744 l -18.23710828234967 -10.669192400713582" fill="#faff18" stroke="none" /><path d="M 117.94076556474637 110.91462005526583 l 13.708634407882498 8.33991924695755 a37.046211714132184,37.046211714132184 0 0,0 -0.3361244427566243,0.5419396260761993 l -13.56304532545791 -8.574655204399022" fill="#ffc412" stroke="none" /><path d="M 117.55443506779139 111.5257021239791 l 1.6387340830711399 1.0759423945544448 a22.96038298080211,22.96038298080211 0 0,0 -0.21976027036770265,0.3285117867346798 l -1.619970707292716 -1.1039910954949315" fill="#ff0000" stroke="none" /><line stroke="#e1ed5e" stroke-width="0.3" x1="143.8653032363475" x2="146.44561519142675" y1="172.8068346515853" y2="177.08958963109032" /><path d="M 144.38136562736335 173.6633856474863 a86.0,86.0 0 0,1 -40.68145358897372,12.25698825130547" fill="none" id="id54" stroke="none" /><text fill="#e1ed5e" style="font-size:6.75px; font-family:Arial;" text-anchor="middle"><textPath startOffset="21.466115282336833" xlink:href="#id54">June</textPath></text><line stroke="#e1ed5e" stroke-width="0.3" x1="102.19456741930631" x2="102.32365962044197" y1="184.97166512339345" y2="189.96999836594603" /><path d="M 102.22038585953345 185.97133177190398 a86.0,86.0 0 0,1 -42.740103519485714,-10.115201625700543" fill="none" id="id55" stroke="none" /><text fill="#e1ed5e" style="font-size:6.75px; font-family:Arial;" text-anchor="middle"><textPath startOffset="22.20632615414155" xlink:href="#id55">July</textPath></text><line stroke="#e1ed5e" stroke-width="0.3" x1="58.666819895761336" x2="56.23545636021788" y1="174.27360380694188" y2="178.64263932499728" /><path d="M 58.180547188652646 175.14741091055294 a86.0,86.0 0 0,1 -31.652253787137756,-30.449443065178592" fill="none" id="id56" stroke="none" /><text fill="#e1ed5e" style="font-size:6.75px; font-family:Arial;" text-anchor="middle"><textPath startOffset="22.20632615414155" xlink:href="#id56">August</textPath></text><line stroke="#e1ed5e" stroke-width="0.3" x1="26.63291911575756" x2="22.317208475507996" y1="142.92168965132927" y2="145.44649492493687" /><path d="M 25.769776987707644 143.4266507060508 a86.0,86.0 0 0,1 -11.730757126820373,-40.83630448921669" fill="none" id="id57" stroke="none" /><text fill="#e1ed5e" style="font-size:6.75px; font-family:Arial;" text-anchor="middle"><textPath startOffset="21.46611528233685" xlink:href="#id57">September</textPath></text><line stroke="#e1ed5e" stroke-width="0.3" x1="15.007084014347285" x2="10.007500721073583" y1="101.09737516637583" y2="101.16192664675087" /><path d="M 14.007167355692545 101.11028546245083 a86.0,86.0 0 0,1 10.666146001902534,-42.60595125391555" fill="none" id="id58" stroke="none" /><text fill="#e1ed5e" style="font-size:6.75px; font-family:Arial;" text-anchor="middle"><textPath startOffset="22.20632615414155" xlink:href="#id58">October</textPath></text><line stroke="#e1ed5e" stroke-width="0.3" x1="26.266209847984243" x2="21.928928074336255" y1="57.711370442889674" y2="55.22380399835377" /><path d="M 25.398753493254645 57.213857153982495 a86.0,86.0 0 0,1 29.58750427330803,-30.492523968695096" fill="none" id="id59" stroke="none" /><text fill="#e1ed5e" style="font-size:6.75px; font-family:Arial;" text-anchor="middle"><textPath startOffset="21.46611528233685" xlink:href="#id59">November</textPath></text><line stroke="#e1ed5e" stroke-width="0.3" x1="56.76296977257108" x2="54.21961505331056" y1="26.818313649435495" y2="22.513508569990535" /><path d="M 56.25429882871898 25.957352633546506 a86.0,86.0 0 0,1 42.26535254187918,-11.944610805530505" fill="none" id="id60" stroke="none" /><text fill="#e1ed5e" style="font-size:6.75px; font-family:Arial;" text-anchor="middle"><textPath startOffset="22.20632615414155" xlink:href="#id60">December</textPath></text></svg>